<mxfile host="app.diagrams.net" modified="2021-02-04T08:42:18.518Z" agent="5.0 (Windows NT 10.0; Win64; x64) AppleWebKit/537.36 (KHTML, like Gecko) Chrome/88.0.4324.104 Safari/537.36" etag="YPb6dJX2NCvRTAA6Hgp7" version="14.2.9" type="github">
  <diagram id="jXWVS1nJ8mBkfSVFLXK5" name="Page-1">
    <mxGraphModel dx="1777" dy="588" grid="1" gridSize="10" guides="1" tooltips="1" connect="1" arrows="1" fold="1" page="1" pageScale="1" pageWidth="827" pageHeight="1169" math="1" shadow="0">
      <root>
        <mxCell id="0" />
        <mxCell id="1" parent="0" />
        <mxCell id="T_8p9TyNU_sb_ak6CZyA-57" value="" style="group" vertex="1" connectable="0" parent="1">
          <mxGeometry x="450" y="1460" width="320" height="200" as="geometry" />
        </mxCell>
        <mxCell id="T_8p9TyNU_sb_ak6CZyA-41" value="&lt;font color=&quot;#330000&quot;&gt;&lt;b&gt;集成学习&lt;/b&gt;&lt;/font&gt;" style="rounded=1;whiteSpace=wrap;html=1;fillColor=#ffcccc;strokeColor=#36393d;" vertex="1" parent="T_8p9TyNU_sb_ak6CZyA-57">
          <mxGeometry width="120" height="120" as="geometry" />
        </mxCell>
        <mxCell id="T_8p9TyNU_sb_ak6CZyA-42" value="定义" style="rounded=1;whiteSpace=wrap;html=1;" vertex="1" parent="T_8p9TyNU_sb_ak6CZyA-57">
          <mxGeometry y="120" width="120" height="40" as="geometry" />
        </mxCell>
        <mxCell id="T_8p9TyNU_sb_ak6CZyA-43" value="静态属性" style="rounded=1;whiteSpace=wrap;html=1;horizontal=0;" vertex="1" parent="T_8p9TyNU_sb_ak6CZyA-57">
          <mxGeometry x="120" width="30" height="160" as="geometry" />
        </mxCell>
        <mxCell id="T_8p9TyNU_sb_ak6CZyA-44" value="种类" style="rounded=1;whiteSpace=wrap;html=1;" vertex="1" parent="T_8p9TyNU_sb_ak6CZyA-57">
          <mxGeometry x="150" width="170" height="40" as="geometry" />
        </mxCell>
        <mxCell id="T_8p9TyNU_sb_ak6CZyA-45" value="动态属性" style="rounded=1;whiteSpace=wrap;html=1;horizontal=0;" vertex="1" parent="T_8p9TyNU_sb_ak6CZyA-57">
          <mxGeometry x="120" y="160" width="30" height="40" as="geometry" />
        </mxCell>
        <mxCell id="T_8p9TyNU_sb_ak6CZyA-46" value="基学习器" style="rounded=1;whiteSpace=wrap;html=1;" vertex="1" parent="T_8p9TyNU_sb_ak6CZyA-57">
          <mxGeometry x="150" y="40" width="170" height="30" as="geometry" />
        </mxCell>
        <mxCell id="T_8p9TyNU_sb_ak6CZyA-47" value="驱动因素" style="rounded=1;whiteSpace=wrap;html=1;" vertex="1" parent="T_8p9TyNU_sb_ak6CZyA-57">
          <mxGeometry y="160" width="120" height="40" as="geometry" />
        </mxCell>
        <mxCell id="T_8p9TyNU_sb_ak6CZyA-48" value="偏差-方差属性" style="rounded=1;whiteSpace=wrap;html=1;" vertex="1" parent="T_8p9TyNU_sb_ak6CZyA-57">
          <mxGeometry x="150" y="140" width="170" height="60" as="geometry" />
        </mxCell>
        <mxCell id="T_8p9TyNU_sb_ak6CZyA-145" value="结合方式" style="rounded=1;whiteSpace=wrap;html=1;" vertex="1" parent="T_8p9TyNU_sb_ak6CZyA-57">
          <mxGeometry x="150" y="70" width="170" height="70" as="geometry" />
        </mxCell>
        <mxCell id="T_8p9TyNU_sb_ak6CZyA-60" value="" style="group" vertex="1" connectable="0" parent="1">
          <mxGeometry x="1660" y="670" width="320" height="200" as="geometry" />
        </mxCell>
        <mxCell id="T_8p9TyNU_sb_ak6CZyA-49" value="&lt;font color=&quot;#330000&quot;&gt;&lt;b&gt;随机森林&lt;/b&gt;&lt;/font&gt;" style="rounded=1;whiteSpace=wrap;html=1;fillColor=#cce5ff;strokeColor=#36393d;" vertex="1" parent="T_8p9TyNU_sb_ak6CZyA-60">
          <mxGeometry width="120" height="120" as="geometry" />
        </mxCell>
        <mxCell id="T_8p9TyNU_sb_ak6CZyA-50" value="定义" style="rounded=1;whiteSpace=wrap;html=1;" vertex="1" parent="T_8p9TyNU_sb_ak6CZyA-60">
          <mxGeometry y="120" width="120" height="40" as="geometry" />
        </mxCell>
        <mxCell id="T_8p9TyNU_sb_ak6CZyA-51" value="静态属性" style="rounded=1;whiteSpace=wrap;html=1;horizontal=0;" vertex="1" parent="T_8p9TyNU_sb_ak6CZyA-60">
          <mxGeometry x="120" width="30" height="80" as="geometry" />
        </mxCell>
        <mxCell id="T_8p9TyNU_sb_ak6CZyA-52" value="数据抽样" style="rounded=1;whiteSpace=wrap;html=1;" vertex="1" parent="T_8p9TyNU_sb_ak6CZyA-60">
          <mxGeometry x="150" width="170" height="60" as="geometry" />
        </mxCell>
        <mxCell id="T_8p9TyNU_sb_ak6CZyA-53" value="动态属性" style="rounded=1;whiteSpace=wrap;html=1;horizontal=0;" vertex="1" parent="T_8p9TyNU_sb_ak6CZyA-60">
          <mxGeometry x="120" y="80" width="30" height="80" as="geometry" />
        </mxCell>
        <mxCell id="T_8p9TyNU_sb_ak6CZyA-54" value="基学习器" style="rounded=1;whiteSpace=wrap;html=1;" vertex="1" parent="T_8p9TyNU_sb_ak6CZyA-60">
          <mxGeometry x="150" y="60" width="170" height="20" as="geometry" />
        </mxCell>
        <mxCell id="T_8p9TyNU_sb_ak6CZyA-55" value="驱动因素" style="rounded=1;whiteSpace=wrap;html=1;" vertex="1" parent="T_8p9TyNU_sb_ak6CZyA-60">
          <mxGeometry y="160" width="320" height="40" as="geometry" />
        </mxCell>
        <mxCell id="T_8p9TyNU_sb_ak6CZyA-56" value="结果集成" style="rounded=1;whiteSpace=wrap;html=1;" vertex="1" parent="T_8p9TyNU_sb_ak6CZyA-60">
          <mxGeometry x="150" y="80" width="170" height="20" as="geometry" />
        </mxCell>
        <mxCell id="T_8p9TyNU_sb_ak6CZyA-58" value="优缺点" style="rounded=1;whiteSpace=wrap;html=1;" vertex="1" parent="T_8p9TyNU_sb_ak6CZyA-60">
          <mxGeometry x="150" y="120" width="170" height="40" as="geometry" />
        </mxCell>
        <mxCell id="T_8p9TyNU_sb_ak6CZyA-59" value="特征重要性" style="rounded=1;whiteSpace=wrap;html=1;" vertex="1" parent="T_8p9TyNU_sb_ak6CZyA-60">
          <mxGeometry x="150" y="100" width="170" height="20" as="geometry" />
        </mxCell>
        <mxCell id="T_8p9TyNU_sb_ak6CZyA-80" value="" style="group" vertex="1" connectable="0" parent="1">
          <mxGeometry x="1654" y="969" width="320" height="200" as="geometry" />
        </mxCell>
        <mxCell id="T_8p9TyNU_sb_ak6CZyA-62" value="&lt;font color=&quot;#330000&quot;&gt;&lt;b&gt;AdaBoost&lt;/b&gt;&lt;/font&gt;" style="rounded=1;whiteSpace=wrap;html=1;fillColor=#ffff88;strokeColor=#36393d;" vertex="1" parent="T_8p9TyNU_sb_ak6CZyA-80">
          <mxGeometry width="120" height="120" as="geometry" />
        </mxCell>
        <mxCell id="T_8p9TyNU_sb_ak6CZyA-63" value="定义" style="rounded=1;whiteSpace=wrap;html=1;" vertex="1" parent="T_8p9TyNU_sb_ak6CZyA-80">
          <mxGeometry y="120" width="120" height="40" as="geometry" />
        </mxCell>
        <mxCell id="T_8p9TyNU_sb_ak6CZyA-64" value="静态属性" style="rounded=1;whiteSpace=wrap;html=1;horizontal=0;" vertex="1" parent="T_8p9TyNU_sb_ak6CZyA-80">
          <mxGeometry x="120" width="30" height="120" as="geometry" />
        </mxCell>
        <mxCell id="T_8p9TyNU_sb_ak6CZyA-65" value="数据分布" style="rounded=1;whiteSpace=wrap;html=1;" vertex="1" parent="T_8p9TyNU_sb_ak6CZyA-80">
          <mxGeometry x="150" width="170" height="70" as="geometry" />
        </mxCell>
        <mxCell id="T_8p9TyNU_sb_ak6CZyA-66" value="动态属性" style="rounded=1;whiteSpace=wrap;html=1;horizontal=0;" vertex="1" parent="T_8p9TyNU_sb_ak6CZyA-80">
          <mxGeometry x="120" y="120" width="30" height="80" as="geometry" />
        </mxCell>
        <mxCell id="T_8p9TyNU_sb_ak6CZyA-67" value="结合方式" style="rounded=1;whiteSpace=wrap;html=1;" vertex="1" parent="T_8p9TyNU_sb_ak6CZyA-80">
          <mxGeometry x="150" y="70" width="170" height="60" as="geometry" />
        </mxCell>
        <mxCell id="T_8p9TyNU_sb_ak6CZyA-68" value="驱动因素" style="rounded=1;whiteSpace=wrap;html=1;" vertex="1" parent="T_8p9TyNU_sb_ak6CZyA-80">
          <mxGeometry y="160" width="120" height="40" as="geometry" />
        </mxCell>
        <mxCell id="T_8p9TyNU_sb_ak6CZyA-70" value="优缺点" style="rounded=1;whiteSpace=wrap;html=1;" vertex="1" parent="T_8p9TyNU_sb_ak6CZyA-80">
          <mxGeometry x="150" y="130" width="170" height="70" as="geometry" />
        </mxCell>
        <mxCell id="T_8p9TyNU_sb_ak6CZyA-91" value="" style="group" vertex="1" connectable="0" parent="1">
          <mxGeometry x="1654" y="1220" width="320" height="200" as="geometry" />
        </mxCell>
        <mxCell id="T_8p9TyNU_sb_ak6CZyA-72" value="&lt;font color=&quot;#330000&quot;&gt;&lt;b&gt;GBDT&lt;/b&gt;&lt;/font&gt;" style="rounded=1;whiteSpace=wrap;html=1;fillColor=#cdeb8b;strokeColor=#36393d;" vertex="1" parent="T_8p9TyNU_sb_ak6CZyA-91">
          <mxGeometry width="120" height="120" as="geometry" />
        </mxCell>
        <mxCell id="T_8p9TyNU_sb_ak6CZyA-73" value="定义" style="rounded=1;whiteSpace=wrap;html=1;" vertex="1" parent="T_8p9TyNU_sb_ak6CZyA-91">
          <mxGeometry y="120" width="120" height="40" as="geometry" />
        </mxCell>
        <mxCell id="T_8p9TyNU_sb_ak6CZyA-74" value="静态属性" style="rounded=1;whiteSpace=wrap;html=1;horizontal=0;" vertex="1" parent="T_8p9TyNU_sb_ak6CZyA-91">
          <mxGeometry x="120" width="30" height="120" as="geometry" />
        </mxCell>
        <mxCell id="T_8p9TyNU_sb_ak6CZyA-75" value="数据分布" style="rounded=1;whiteSpace=wrap;html=1;" vertex="1" parent="T_8p9TyNU_sb_ak6CZyA-91">
          <mxGeometry x="150" width="170" height="50" as="geometry" />
        </mxCell>
        <mxCell id="T_8p9TyNU_sb_ak6CZyA-76" value="动态属性" style="rounded=1;whiteSpace=wrap;html=1;horizontal=0;" vertex="1" parent="T_8p9TyNU_sb_ak6CZyA-91">
          <mxGeometry x="120" y="120" width="30" height="80" as="geometry" />
        </mxCell>
        <mxCell id="T_8p9TyNU_sb_ak6CZyA-77" value="基学习器" style="rounded=1;whiteSpace=wrap;html=1;" vertex="1" parent="T_8p9TyNU_sb_ak6CZyA-91">
          <mxGeometry x="150" y="50" width="170" height="40" as="geometry" />
        </mxCell>
        <mxCell id="T_8p9TyNU_sb_ak6CZyA-78" value="驱动因素" style="rounded=1;whiteSpace=wrap;html=1;" vertex="1" parent="T_8p9TyNU_sb_ak6CZyA-91">
          <mxGeometry y="160" width="120" height="40" as="geometry" />
        </mxCell>
        <mxCell id="T_8p9TyNU_sb_ak6CZyA-79" value="优缺点" style="rounded=1;whiteSpace=wrap;html=1;" vertex="1" parent="T_8p9TyNU_sb_ak6CZyA-91">
          <mxGeometry x="150" y="150" width="170" height="50" as="geometry" />
        </mxCell>
        <mxCell id="T_8p9TyNU_sb_ak6CZyA-81" value="特征交叉" style="rounded=1;whiteSpace=wrap;html=1;" vertex="1" parent="T_8p9TyNU_sb_ak6CZyA-91">
          <mxGeometry x="150" y="90" width="170" height="60" as="geometry" />
        </mxCell>
        <mxCell id="T_8p9TyNU_sb_ak6CZyA-92" value="" style="group" vertex="1" connectable="0" parent="1">
          <mxGeometry x="1654" y="1440" width="320" height="200" as="geometry" />
        </mxCell>
        <mxCell id="T_8p9TyNU_sb_ak6CZyA-82" value="&lt;b&gt;&lt;font color=&quot;#330000&quot;&gt;XGBoost&lt;/font&gt;&lt;/b&gt;" style="rounded=1;whiteSpace=wrap;html=1;fillColor=#6d8764;strokeColor=#3A5431;fontColor=#ffffff;" vertex="1" parent="T_8p9TyNU_sb_ak6CZyA-92">
          <mxGeometry width="120" height="120" as="geometry" />
        </mxCell>
        <mxCell id="T_8p9TyNU_sb_ak6CZyA-83" value="定义" style="rounded=1;whiteSpace=wrap;html=1;" vertex="1" parent="T_8p9TyNU_sb_ak6CZyA-92">
          <mxGeometry y="120" width="120" height="40" as="geometry" />
        </mxCell>
        <mxCell id="T_8p9TyNU_sb_ak6CZyA-84" value="静态属性" style="rounded=1;whiteSpace=wrap;html=1;horizontal=0;" vertex="1" parent="T_8p9TyNU_sb_ak6CZyA-92">
          <mxGeometry x="120" width="30" height="120" as="geometry" />
        </mxCell>
        <mxCell id="T_8p9TyNU_sb_ak6CZyA-85" value="数据分布" style="rounded=1;whiteSpace=wrap;html=1;" vertex="1" parent="T_8p9TyNU_sb_ak6CZyA-92">
          <mxGeometry x="150" width="170" height="40" as="geometry" />
        </mxCell>
        <mxCell id="T_8p9TyNU_sb_ak6CZyA-86" value="动态属性" style="rounded=1;whiteSpace=wrap;html=1;horizontal=0;" vertex="1" parent="T_8p9TyNU_sb_ak6CZyA-92">
          <mxGeometry x="120" y="120" width="30" height="80" as="geometry" />
        </mxCell>
        <mxCell id="T_8p9TyNU_sb_ak6CZyA-87" value="基学习器" style="rounded=1;whiteSpace=wrap;html=1;" vertex="1" parent="T_8p9TyNU_sb_ak6CZyA-92">
          <mxGeometry x="150" y="40" width="170" height="40" as="geometry" />
        </mxCell>
        <mxCell id="T_8p9TyNU_sb_ak6CZyA-88" value="驱动因素" style="rounded=1;whiteSpace=wrap;html=1;" vertex="1" parent="T_8p9TyNU_sb_ak6CZyA-92">
          <mxGeometry y="160" width="120" height="40" as="geometry" />
        </mxCell>
        <mxCell id="T_8p9TyNU_sb_ak6CZyA-89" value="优缺点" style="rounded=1;whiteSpace=wrap;html=1;" vertex="1" parent="T_8p9TyNU_sb_ak6CZyA-92">
          <mxGeometry x="150" y="160" width="170" height="40" as="geometry" />
        </mxCell>
        <mxCell id="T_8p9TyNU_sb_ak6CZyA-210" value="损失函数" style="rounded=1;whiteSpace=wrap;html=1;" vertex="1" parent="T_8p9TyNU_sb_ak6CZyA-92">
          <mxGeometry x="150" y="80" width="170" height="40" as="geometry" />
        </mxCell>
        <mxCell id="T_8p9TyNU_sb_ak6CZyA-245" value="特征重要性" style="rounded=1;whiteSpace=wrap;html=1;" vertex="1" parent="T_8p9TyNU_sb_ak6CZyA-92">
          <mxGeometry x="150" y="120" width="170" height="40" as="geometry" />
        </mxCell>
        <mxCell id="T_8p9TyNU_sb_ak6CZyA-97" value="" style="group" vertex="1" connectable="0" parent="1">
          <mxGeometry x="1030" y="730" width="320" height="200" as="geometry" />
        </mxCell>
        <mxCell id="T_8p9TyNU_sb_ak6CZyA-98" value="&lt;font color=&quot;#330000&quot;&gt;&lt;b&gt;Bagging&lt;/b&gt;&lt;/font&gt;" style="rounded=1;whiteSpace=wrap;html=1;fillColor=#ffcccc;strokeColor=#36393d;" vertex="1" parent="T_8p9TyNU_sb_ak6CZyA-97">
          <mxGeometry width="120" height="120" as="geometry" />
        </mxCell>
        <mxCell id="T_8p9TyNU_sb_ak6CZyA-99" value="定义" style="rounded=1;whiteSpace=wrap;html=1;" vertex="1" parent="T_8p9TyNU_sb_ak6CZyA-97">
          <mxGeometry y="120" width="120" height="40" as="geometry" />
        </mxCell>
        <mxCell id="T_8p9TyNU_sb_ak6CZyA-100" value="静态属性" style="rounded=1;whiteSpace=wrap;html=1;horizontal=0;" vertex="1" parent="T_8p9TyNU_sb_ak6CZyA-97">
          <mxGeometry x="120" width="30" height="160" as="geometry" />
        </mxCell>
        <mxCell id="T_8p9TyNU_sb_ak6CZyA-101" value="种类" style="rounded=1;whiteSpace=wrap;html=1;" vertex="1" parent="T_8p9TyNU_sb_ak6CZyA-97">
          <mxGeometry x="150" width="170" height="80" as="geometry" />
        </mxCell>
        <mxCell id="T_8p9TyNU_sb_ak6CZyA-102" value="动态属性" style="rounded=1;whiteSpace=wrap;html=1;horizontal=0;" vertex="1" parent="T_8p9TyNU_sb_ak6CZyA-97">
          <mxGeometry x="120" y="160" width="30" height="40" as="geometry" />
        </mxCell>
        <mxCell id="T_8p9TyNU_sb_ak6CZyA-103" value="基学习器" style="rounded=1;whiteSpace=wrap;html=1;" vertex="1" parent="T_8p9TyNU_sb_ak6CZyA-97">
          <mxGeometry x="150" y="80" width="170" height="60" as="geometry" />
        </mxCell>
        <mxCell id="T_8p9TyNU_sb_ak6CZyA-104" value="驱动因素" style="rounded=1;whiteSpace=wrap;html=1;" vertex="1" parent="T_8p9TyNU_sb_ak6CZyA-97">
          <mxGeometry y="160" width="120" height="40" as="geometry" />
        </mxCell>
        <mxCell id="T_8p9TyNU_sb_ak6CZyA-105" value="偏差-方差属性" style="rounded=1;whiteSpace=wrap;html=1;" vertex="1" parent="T_8p9TyNU_sb_ak6CZyA-97">
          <mxGeometry x="150" y="140" width="170" height="60" as="geometry" />
        </mxCell>
        <mxCell id="T_8p9TyNU_sb_ak6CZyA-106" value="" style="group" vertex="1" connectable="0" parent="1">
          <mxGeometry x="1020" y="1440" width="320" height="200" as="geometry" />
        </mxCell>
        <mxCell id="T_8p9TyNU_sb_ak6CZyA-107" value="&lt;font color=&quot;#330000&quot;&gt;&lt;b&gt;Boosting&lt;/b&gt;&lt;/font&gt;" style="rounded=1;whiteSpace=wrap;html=1;fillColor=#ffcccc;strokeColor=#36393d;" vertex="1" parent="T_8p9TyNU_sb_ak6CZyA-106">
          <mxGeometry width="120" height="120" as="geometry" />
        </mxCell>
        <mxCell id="T_8p9TyNU_sb_ak6CZyA-108" value="定义" style="rounded=1;whiteSpace=wrap;html=1;" vertex="1" parent="T_8p9TyNU_sb_ak6CZyA-106">
          <mxGeometry y="120" width="120" height="40" as="geometry" />
        </mxCell>
        <mxCell id="T_8p9TyNU_sb_ak6CZyA-109" value="静态属性" style="rounded=1;whiteSpace=wrap;html=1;horizontal=0;" vertex="1" parent="T_8p9TyNU_sb_ak6CZyA-106">
          <mxGeometry x="120" width="30" height="160" as="geometry" />
        </mxCell>
        <mxCell id="T_8p9TyNU_sb_ak6CZyA-110" value="种类" style="rounded=1;whiteSpace=wrap;html=1;" vertex="1" parent="T_8p9TyNU_sb_ak6CZyA-106">
          <mxGeometry x="150" width="170" height="80" as="geometry" />
        </mxCell>
        <mxCell id="T_8p9TyNU_sb_ak6CZyA-111" value="动态属性" style="rounded=1;whiteSpace=wrap;html=1;horizontal=0;" vertex="1" parent="T_8p9TyNU_sb_ak6CZyA-106">
          <mxGeometry x="120" y="160" width="30" height="40" as="geometry" />
        </mxCell>
        <mxCell id="T_8p9TyNU_sb_ak6CZyA-112" value="基学习器" style="rounded=1;whiteSpace=wrap;html=1;" vertex="1" parent="T_8p9TyNU_sb_ak6CZyA-106">
          <mxGeometry x="150" y="80" width="170" height="60" as="geometry" />
        </mxCell>
        <mxCell id="T_8p9TyNU_sb_ak6CZyA-113" value="驱动因素" style="rounded=1;whiteSpace=wrap;html=1;" vertex="1" parent="T_8p9TyNU_sb_ak6CZyA-106">
          <mxGeometry y="160" width="120" height="40" as="geometry" />
        </mxCell>
        <mxCell id="T_8p9TyNU_sb_ak6CZyA-114" value="偏差-方差属性" style="rounded=1;whiteSpace=wrap;html=1;" vertex="1" parent="T_8p9TyNU_sb_ak6CZyA-106">
          <mxGeometry x="150" y="140" width="170" height="60" as="geometry" />
        </mxCell>
        <mxCell id="T_8p9TyNU_sb_ak6CZyA-115" value="" style="group" vertex="1" connectable="0" parent="1">
          <mxGeometry x="1020" y="1960" width="320" height="200" as="geometry" />
        </mxCell>
        <mxCell id="T_8p9TyNU_sb_ak6CZyA-116" value="&lt;font color=&quot;#330000&quot;&gt;&lt;b&gt;Stacking&lt;/b&gt;&lt;/font&gt;" style="rounded=1;whiteSpace=wrap;html=1;fillColor=#ffcccc;strokeColor=#36393d;" vertex="1" parent="T_8p9TyNU_sb_ak6CZyA-115">
          <mxGeometry width="120" height="120" as="geometry" />
        </mxCell>
        <mxCell id="T_8p9TyNU_sb_ak6CZyA-117" value="定义" style="rounded=1;whiteSpace=wrap;html=1;" vertex="1" parent="T_8p9TyNU_sb_ak6CZyA-115">
          <mxGeometry y="120" width="120" height="40" as="geometry" />
        </mxCell>
        <mxCell id="T_8p9TyNU_sb_ak6CZyA-118" value="静态属性" style="rounded=1;whiteSpace=wrap;html=1;horizontal=0;" vertex="1" parent="T_8p9TyNU_sb_ak6CZyA-115">
          <mxGeometry x="120" width="30" height="160" as="geometry" />
        </mxCell>
        <mxCell id="T_8p9TyNU_sb_ak6CZyA-119" value="种类" style="rounded=1;whiteSpace=wrap;html=1;" vertex="1" parent="T_8p9TyNU_sb_ak6CZyA-115">
          <mxGeometry x="150" width="170" height="80" as="geometry" />
        </mxCell>
        <mxCell id="T_8p9TyNU_sb_ak6CZyA-120" value="动态属性" style="rounded=1;whiteSpace=wrap;html=1;horizontal=0;" vertex="1" parent="T_8p9TyNU_sb_ak6CZyA-115">
          <mxGeometry x="120" y="160" width="30" height="40" as="geometry" />
        </mxCell>
        <mxCell id="T_8p9TyNU_sb_ak6CZyA-121" value="基学习器" style="rounded=1;whiteSpace=wrap;html=1;" vertex="1" parent="T_8p9TyNU_sb_ak6CZyA-115">
          <mxGeometry x="150" y="80" width="170" height="60" as="geometry" />
        </mxCell>
        <mxCell id="T_8p9TyNU_sb_ak6CZyA-122" value="驱动因素" style="rounded=1;whiteSpace=wrap;html=1;" vertex="1" parent="T_8p9TyNU_sb_ak6CZyA-115">
          <mxGeometry y="160" width="120" height="40" as="geometry" />
        </mxCell>
        <mxCell id="T_8p9TyNU_sb_ak6CZyA-123" value="偏差-方差属性" style="rounded=1;whiteSpace=wrap;html=1;" vertex="1" parent="T_8p9TyNU_sb_ak6CZyA-115">
          <mxGeometry x="150" y="140" width="170" height="60" as="geometry" />
        </mxCell>
        <mxCell id="T_8p9TyNU_sb_ak6CZyA-124" style="edgeStyle=orthogonalEdgeStyle;orthogonalLoop=1;jettySize=auto;html=1;entryX=0;entryY=0.5;entryDx=0;entryDy=0;curved=1;" edge="1" parent="1" source="T_8p9TyNU_sb_ak6CZyA-44" target="T_8p9TyNU_sb_ak6CZyA-98">
          <mxGeometry relative="1" as="geometry" />
        </mxCell>
        <mxCell id="T_8p9TyNU_sb_ak6CZyA-126" style="edgeStyle=orthogonalEdgeStyle;curved=1;orthogonalLoop=1;jettySize=auto;html=1;entryX=0;entryY=0.5;entryDx=0;entryDy=0;" edge="1" parent="1" source="T_8p9TyNU_sb_ak6CZyA-44" target="T_8p9TyNU_sb_ak6CZyA-116">
          <mxGeometry relative="1" as="geometry" />
        </mxCell>
        <mxCell id="T_8p9TyNU_sb_ak6CZyA-127" style="edgeStyle=orthogonalEdgeStyle;curved=1;orthogonalLoop=1;jettySize=auto;html=1;" edge="1" parent="1" source="T_8p9TyNU_sb_ak6CZyA-44" target="T_8p9TyNU_sb_ak6CZyA-107">
          <mxGeometry relative="1" as="geometry" />
        </mxCell>
        <mxCell id="T_8p9TyNU_sb_ak6CZyA-130" style="edgeStyle=orthogonalEdgeStyle;curved=1;orthogonalLoop=1;jettySize=auto;html=1;entryX=0;entryY=0.5;entryDx=0;entryDy=0;" edge="1" parent="1" source="T_8p9TyNU_sb_ak6CZyA-101" target="T_8p9TyNU_sb_ak6CZyA-49">
          <mxGeometry relative="1" as="geometry" />
        </mxCell>
        <mxCell id="T_8p9TyNU_sb_ak6CZyA-131" style="edgeStyle=orthogonalEdgeStyle;curved=1;orthogonalLoop=1;jettySize=auto;html=1;entryX=0;entryY=0.5;entryDx=0;entryDy=0;" edge="1" parent="1" source="T_8p9TyNU_sb_ak6CZyA-110" target="T_8p9TyNU_sb_ak6CZyA-62">
          <mxGeometry relative="1" as="geometry" />
        </mxCell>
        <mxCell id="T_8p9TyNU_sb_ak6CZyA-132" style="edgeStyle=orthogonalEdgeStyle;curved=1;orthogonalLoop=1;jettySize=auto;html=1;entryX=0;entryY=0.5;entryDx=0;entryDy=0;" edge="1" parent="1" source="T_8p9TyNU_sb_ak6CZyA-110" target="T_8p9TyNU_sb_ak6CZyA-72">
          <mxGeometry relative="1" as="geometry" />
        </mxCell>
        <mxCell id="T_8p9TyNU_sb_ak6CZyA-134" value="" style="group" vertex="1" connectable="0" parent="1">
          <mxGeometry x="1654" y="1660" width="320" height="200" as="geometry" />
        </mxCell>
        <mxCell id="T_8p9TyNU_sb_ak6CZyA-135" value="&lt;b&gt;&lt;font color=&quot;#330000&quot;&gt;LightGBM&lt;/font&gt;&lt;/b&gt;" style="rounded=1;whiteSpace=wrap;html=1;fillColor=#a0522d;strokeColor=#6D1F00;fontColor=#ffffff;" vertex="1" parent="T_8p9TyNU_sb_ak6CZyA-134">
          <mxGeometry width="120" height="120" as="geometry" />
        </mxCell>
        <mxCell id="T_8p9TyNU_sb_ak6CZyA-136" value="定义" style="rounded=1;whiteSpace=wrap;html=1;" vertex="1" parent="T_8p9TyNU_sb_ak6CZyA-134">
          <mxGeometry y="120" width="120" height="40" as="geometry" />
        </mxCell>
        <mxCell id="T_8p9TyNU_sb_ak6CZyA-137" value="静态属性" style="rounded=1;whiteSpace=wrap;html=1;horizontal=0;" vertex="1" parent="T_8p9TyNU_sb_ak6CZyA-134">
          <mxGeometry x="120" width="30" height="120" as="geometry" />
        </mxCell>
        <mxCell id="T_8p9TyNU_sb_ak6CZyA-138" value="数据分布" style="rounded=1;whiteSpace=wrap;html=1;" vertex="1" parent="T_8p9TyNU_sb_ak6CZyA-134">
          <mxGeometry x="150" width="170" height="50" as="geometry" />
        </mxCell>
        <mxCell id="T_8p9TyNU_sb_ak6CZyA-139" value="动态属性" style="rounded=1;whiteSpace=wrap;html=1;horizontal=0;" vertex="1" parent="T_8p9TyNU_sb_ak6CZyA-134">
          <mxGeometry x="120" y="120" width="30" height="80" as="geometry" />
        </mxCell>
        <mxCell id="T_8p9TyNU_sb_ak6CZyA-140" value="基学习器" style="rounded=1;whiteSpace=wrap;html=1;" vertex="1" parent="T_8p9TyNU_sb_ak6CZyA-134">
          <mxGeometry x="150" y="50" width="170" height="100" as="geometry" />
        </mxCell>
        <mxCell id="T_8p9TyNU_sb_ak6CZyA-141" value="驱动因素" style="rounded=1;whiteSpace=wrap;html=1;" vertex="1" parent="T_8p9TyNU_sb_ak6CZyA-134">
          <mxGeometry y="160" width="120" height="40" as="geometry" />
        </mxCell>
        <mxCell id="T_8p9TyNU_sb_ak6CZyA-142" value="优缺点" style="rounded=1;whiteSpace=wrap;html=1;" vertex="1" parent="T_8p9TyNU_sb_ak6CZyA-134">
          <mxGeometry x="150" y="150" width="170" height="50" as="geometry" />
        </mxCell>
        <mxCell id="T_8p9TyNU_sb_ak6CZyA-143" style="edgeStyle=orthogonalEdgeStyle;curved=1;orthogonalLoop=1;jettySize=auto;html=1;entryX=0;entryY=0.5;entryDx=0;entryDy=0;" edge="1" parent="1" source="T_8p9TyNU_sb_ak6CZyA-110" target="T_8p9TyNU_sb_ak6CZyA-82">
          <mxGeometry relative="1" as="geometry" />
        </mxCell>
        <mxCell id="T_8p9TyNU_sb_ak6CZyA-144" style="edgeStyle=orthogonalEdgeStyle;curved=1;orthogonalLoop=1;jettySize=auto;html=1;entryX=0;entryY=0.5;entryDx=0;entryDy=0;" edge="1" parent="1" source="T_8p9TyNU_sb_ak6CZyA-110" target="T_8p9TyNU_sb_ak6CZyA-135">
          <mxGeometry relative="1" as="geometry" />
        </mxCell>
        <mxCell id="T_8p9TyNU_sb_ak6CZyA-149" value="" style="group" vertex="1" connectable="0" parent="1">
          <mxGeometry x="280" y="1760" width="170" height="140" as="geometry" />
        </mxCell>
        <mxCell id="T_8p9TyNU_sb_ak6CZyA-146" value="&lt;font color=&quot;#330000&quot;&gt;集成学习的有效性&lt;/font&gt;" style="rounded=1;whiteSpace=wrap;html=1;fontStyle=1;fillColor=#cdeb8b;strokeColor=#36393d;" vertex="1" parent="T_8p9TyNU_sb_ak6CZyA-149">
          <mxGeometry width="170" height="60" as="geometry" />
        </mxCell>
        <mxCell id="T_8p9TyNU_sb_ak6CZyA-147" value="不同算法的角度不一样" style="rounded=1;whiteSpace=wrap;html=1;" vertex="1" parent="T_8p9TyNU_sb_ak6CZyA-149">
          <mxGeometry y="60" width="170" height="40" as="geometry" />
        </mxCell>
        <mxCell id="T_8p9TyNU_sb_ak6CZyA-148" value="启发式算法陷入局部最优" style="rounded=1;whiteSpace=wrap;html=1;" vertex="1" parent="T_8p9TyNU_sb_ak6CZyA-149">
          <mxGeometry y="100" width="170" height="40" as="geometry" />
        </mxCell>
        <mxCell id="T_8p9TyNU_sb_ak6CZyA-151" style="edgeStyle=orthogonalEdgeStyle;curved=1;orthogonalLoop=1;jettySize=auto;html=1;entryX=0.5;entryY=1;entryDx=0;entryDy=0;" edge="1" parent="1" source="T_8p9TyNU_sb_ak6CZyA-146" target="T_8p9TyNU_sb_ak6CZyA-47">
          <mxGeometry relative="1" as="geometry" />
        </mxCell>
        <mxCell id="T_8p9TyNU_sb_ak6CZyA-152" value="" style="group" vertex="1" connectable="0" parent="1">
          <mxGeometry x="500" y="1090" width="320" height="200" as="geometry" />
        </mxCell>
        <mxCell id="T_8p9TyNU_sb_ak6CZyA-153" value="&lt;font color=&quot;#330000&quot;&gt;&lt;b&gt;基学习器&lt;/b&gt;&lt;/font&gt;" style="rounded=1;whiteSpace=wrap;html=1;fillColor=#cdeb8b;strokeColor=#36393d;" vertex="1" parent="T_8p9TyNU_sb_ak6CZyA-152">
          <mxGeometry width="120" height="120" as="geometry" />
        </mxCell>
        <mxCell id="T_8p9TyNU_sb_ak6CZyA-154" value="定义" style="rounded=1;whiteSpace=wrap;html=1;" vertex="1" parent="T_8p9TyNU_sb_ak6CZyA-152">
          <mxGeometry y="120" width="120" height="40" as="geometry" />
        </mxCell>
        <mxCell id="T_8p9TyNU_sb_ak6CZyA-155" value="静态属性" style="rounded=1;whiteSpace=wrap;html=1;horizontal=0;" vertex="1" parent="T_8p9TyNU_sb_ak6CZyA-152">
          <mxGeometry x="120" width="30" height="160" as="geometry" />
        </mxCell>
        <mxCell id="T_8p9TyNU_sb_ak6CZyA-157" value="动态属性" style="rounded=1;whiteSpace=wrap;html=1;horizontal=0;" vertex="1" parent="T_8p9TyNU_sb_ak6CZyA-152">
          <mxGeometry x="120" y="160" width="30" height="40" as="geometry" />
        </mxCell>
        <mxCell id="T_8p9TyNU_sb_ak6CZyA-158" value="弱模型" style="rounded=1;whiteSpace=wrap;html=1;" vertex="1" parent="T_8p9TyNU_sb_ak6CZyA-152">
          <mxGeometry x="150" y="-1" width="170" height="41" as="geometry" />
        </mxCell>
        <mxCell id="T_8p9TyNU_sb_ak6CZyA-159" value="驱动因素" style="rounded=1;whiteSpace=wrap;html=1;" vertex="1" parent="T_8p9TyNU_sb_ak6CZyA-152">
          <mxGeometry y="160" width="120" height="40" as="geometry" />
        </mxCell>
        <mxCell id="T_8p9TyNU_sb_ak6CZyA-161" value="强模型" style="rounded=1;whiteSpace=wrap;html=1;" vertex="1" parent="T_8p9TyNU_sb_ak6CZyA-152">
          <mxGeometry x="150" y="40" width="170" height="40" as="geometry" />
        </mxCell>
        <mxCell id="T_8p9TyNU_sb_ak6CZyA-164" value="树模型" style="rounded=1;whiteSpace=wrap;html=1;" vertex="1" parent="T_8p9TyNU_sb_ak6CZyA-152">
          <mxGeometry x="150" y="79" width="170" height="121" as="geometry" />
        </mxCell>
        <mxCell id="T_8p9TyNU_sb_ak6CZyA-162" style="edgeStyle=orthogonalEdgeStyle;curved=1;orthogonalLoop=1;jettySize=auto;html=1;entryX=0;entryY=0.5;entryDx=0;entryDy=0;" edge="1" parent="1" source="T_8p9TyNU_sb_ak6CZyA-46" target="T_8p9TyNU_sb_ak6CZyA-153">
          <mxGeometry relative="1" as="geometry" />
        </mxCell>
        <mxCell id="T_8p9TyNU_sb_ak6CZyA-163" style="edgeStyle=orthogonalEdgeStyle;curved=1;orthogonalLoop=1;jettySize=auto;html=1;entryX=0;entryY=0.5;entryDx=0;entryDy=0;" edge="1" parent="1" source="T_8p9TyNU_sb_ak6CZyA-48" target="T_8p9TyNU_sb_ak6CZyA-159">
          <mxGeometry relative="1" as="geometry" />
        </mxCell>
        <mxCell id="T_8p9TyNU_sb_ak6CZyA-165" value="" style="group" vertex="1" connectable="0" parent="1">
          <mxGeometry x="2068" y="500" width="320" height="140" as="geometry" />
        </mxCell>
        <mxCell id="T_8p9TyNU_sb_ak6CZyA-166" value="&lt;font color=&quot;#330000&quot;&gt;&lt;b&gt;决策树&lt;/b&gt;&lt;/font&gt;" style="rounded=1;whiteSpace=wrap;html=1;fillColor=#cce5ff;strokeColor=#36393d;" vertex="1" parent="T_8p9TyNU_sb_ak6CZyA-165">
          <mxGeometry width="120" height="84" as="geometry" />
        </mxCell>
        <mxCell id="T_8p9TyNU_sb_ak6CZyA-167" value="定义" style="rounded=1;whiteSpace=wrap;html=1;" vertex="1" parent="T_8p9TyNU_sb_ak6CZyA-165">
          <mxGeometry y="84" width="120" height="28" as="geometry" />
        </mxCell>
        <mxCell id="T_8p9TyNU_sb_ak6CZyA-168" value="静态属性" style="rounded=1;whiteSpace=wrap;html=1;horizontal=0;" vertex="1" parent="T_8p9TyNU_sb_ak6CZyA-165">
          <mxGeometry x="120" width="30" height="84" as="geometry" />
        </mxCell>
        <mxCell id="T_8p9TyNU_sb_ak6CZyA-169" value="接受的数据" style="rounded=1;whiteSpace=wrap;html=1;" vertex="1" parent="T_8p9TyNU_sb_ak6CZyA-165">
          <mxGeometry x="150" width="170" height="50" as="geometry" />
        </mxCell>
        <mxCell id="T_8p9TyNU_sb_ak6CZyA-170" value="动态属性" style="rounded=1;whiteSpace=wrap;html=1;horizontal=0;" vertex="1" parent="T_8p9TyNU_sb_ak6CZyA-165">
          <mxGeometry x="120" y="84" width="30" height="56" as="geometry" />
        </mxCell>
        <mxCell id="T_8p9TyNU_sb_ak6CZyA-171" value="节点的分裂" style="rounded=1;whiteSpace=wrap;html=1;" vertex="1" parent="T_8p9TyNU_sb_ak6CZyA-165">
          <mxGeometry x="150" y="50" width="170" height="40" as="geometry" />
        </mxCell>
        <mxCell id="T_8p9TyNU_sb_ak6CZyA-172" value="驱动因素" style="rounded=1;whiteSpace=wrap;html=1;" vertex="1" parent="T_8p9TyNU_sb_ak6CZyA-165">
          <mxGeometry y="112" width="120" height="28" as="geometry" />
        </mxCell>
        <mxCell id="T_8p9TyNU_sb_ak6CZyA-173" value="树的复杂度" style="rounded=1;whiteSpace=wrap;html=1;" vertex="1" parent="T_8p9TyNU_sb_ak6CZyA-165">
          <mxGeometry x="150" y="90" width="170" height="50" as="geometry" />
        </mxCell>
        <mxCell id="T_8p9TyNU_sb_ak6CZyA-176" style="edgeStyle=orthogonalEdgeStyle;curved=1;orthogonalLoop=1;jettySize=auto;html=1;entryX=0;entryY=0.5;entryDx=0;entryDy=0;" edge="1" parent="1" source="T_8p9TyNU_sb_ak6CZyA-54" target="T_8p9TyNU_sb_ak6CZyA-166">
          <mxGeometry relative="1" as="geometry" />
        </mxCell>
        <mxCell id="T_8p9TyNU_sb_ak6CZyA-178" value="" style="group" vertex="1" connectable="0" parent="1">
          <mxGeometry x="2068" y="730" width="320" height="140" as="geometry" />
        </mxCell>
        <mxCell id="T_8p9TyNU_sb_ak6CZyA-179" value="&lt;font color=&quot;#330000&quot;&gt;&lt;b&gt;特征重要性&lt;/b&gt;&lt;/font&gt;" style="rounded=1;whiteSpace=wrap;html=1;fillColor=#cce5ff;strokeColor=#36393d;" vertex="1" parent="T_8p9TyNU_sb_ak6CZyA-178">
          <mxGeometry width="120" height="84" as="geometry" />
        </mxCell>
        <mxCell id="T_8p9TyNU_sb_ak6CZyA-180" value="定义" style="rounded=1;whiteSpace=wrap;html=1;" vertex="1" parent="T_8p9TyNU_sb_ak6CZyA-178">
          <mxGeometry y="84" width="120" height="28" as="geometry" />
        </mxCell>
        <mxCell id="T_8p9TyNU_sb_ak6CZyA-181" value="静态属性" style="rounded=1;whiteSpace=wrap;html=1;horizontal=0;" vertex="1" parent="T_8p9TyNU_sb_ak6CZyA-178">
          <mxGeometry x="120" width="30" height="84" as="geometry" />
        </mxCell>
        <mxCell id="T_8p9TyNU_sb_ak6CZyA-182" value="基于节点分裂的信息增益" style="rounded=1;whiteSpace=wrap;html=1;" vertex="1" parent="T_8p9TyNU_sb_ak6CZyA-178">
          <mxGeometry x="150" width="170" height="80" as="geometry" />
        </mxCell>
        <mxCell id="T_8p9TyNU_sb_ak6CZyA-183" value="动态属性" style="rounded=1;whiteSpace=wrap;html=1;horizontal=0;" vertex="1" parent="T_8p9TyNU_sb_ak6CZyA-178">
          <mxGeometry x="120" y="84" width="30" height="56" as="geometry" />
        </mxCell>
        <mxCell id="T_8p9TyNU_sb_ak6CZyA-184" value="基于袋外数据的评估" style="rounded=1;whiteSpace=wrap;html=1;" vertex="1" parent="T_8p9TyNU_sb_ak6CZyA-178">
          <mxGeometry x="150" y="80" width="170" height="60" as="geometry" />
        </mxCell>
        <mxCell id="T_8p9TyNU_sb_ak6CZyA-185" value="驱动因素" style="rounded=1;whiteSpace=wrap;html=1;" vertex="1" parent="T_8p9TyNU_sb_ak6CZyA-178">
          <mxGeometry y="112" width="120" height="28" as="geometry" />
        </mxCell>
        <mxCell id="T_8p9TyNU_sb_ak6CZyA-187" style="edgeStyle=orthogonalEdgeStyle;curved=1;orthogonalLoop=1;jettySize=auto;html=1;entryX=0;entryY=0.5;entryDx=0;entryDy=0;" edge="1" parent="1" source="T_8p9TyNU_sb_ak6CZyA-59" target="T_8p9TyNU_sb_ak6CZyA-179">
          <mxGeometry relative="1" as="geometry" />
        </mxCell>
        <mxCell id="T_8p9TyNU_sb_ak6CZyA-188" value="" style="group" vertex="1" connectable="0" parent="1">
          <mxGeometry x="1470" y="2000" width="320" height="130" as="geometry" />
        </mxCell>
        <mxCell id="T_8p9TyNU_sb_ak6CZyA-189" value="&lt;b&gt;&lt;font color=&quot;#330000&quot;&gt;损失函数的 泰勒展开&lt;/font&gt;&lt;/b&gt;" style="rounded=1;whiteSpace=wrap;html=1;fillColor=#ffcccc;strokeColor=#36393d;" vertex="1" parent="T_8p9TyNU_sb_ak6CZyA-188">
          <mxGeometry width="120" height="78" as="geometry" />
        </mxCell>
        <mxCell id="T_8p9TyNU_sb_ak6CZyA-190" value="定义" style="rounded=1;whiteSpace=wrap;html=1;" vertex="1" parent="T_8p9TyNU_sb_ak6CZyA-188">
          <mxGeometry y="78" width="120" height="26" as="geometry" />
        </mxCell>
        <mxCell id="T_8p9TyNU_sb_ak6CZyA-191" value="静态属性" style="rounded=1;whiteSpace=wrap;html=1;horizontal=0;" vertex="1" parent="T_8p9TyNU_sb_ak6CZyA-188">
          <mxGeometry x="120" width="30" height="78" as="geometry" />
        </mxCell>
        <mxCell id="T_8p9TyNU_sb_ak6CZyA-192" value="损失函数" style="rounded=1;whiteSpace=wrap;html=1;" vertex="1" parent="T_8p9TyNU_sb_ak6CZyA-188">
          <mxGeometry x="150" width="170" height="32.5" as="geometry" />
        </mxCell>
        <mxCell id="T_8p9TyNU_sb_ak6CZyA-193" value="动态属性" style="rounded=1;whiteSpace=wrap;html=1;horizontal=0;" vertex="1" parent="T_8p9TyNU_sb_ak6CZyA-188">
          <mxGeometry x="120" y="78" width="30" height="52" as="geometry" />
        </mxCell>
        <mxCell id="T_8p9TyNU_sb_ak6CZyA-194" value="正则项" style="rounded=1;whiteSpace=wrap;html=1;" vertex="1" parent="T_8p9TyNU_sb_ak6CZyA-188">
          <mxGeometry x="150" y="32.5" width="170" height="65" as="geometry" />
        </mxCell>
        <mxCell id="T_8p9TyNU_sb_ak6CZyA-195" value="驱动因素" style="rounded=1;whiteSpace=wrap;html=1;" vertex="1" parent="T_8p9TyNU_sb_ak6CZyA-188">
          <mxGeometry y="104" width="120" height="26" as="geometry" />
        </mxCell>
        <mxCell id="T_8p9TyNU_sb_ak6CZyA-196" value="前后 子模型" style="rounded=1;whiteSpace=wrap;html=1;" vertex="1" parent="T_8p9TyNU_sb_ak6CZyA-188">
          <mxGeometry x="150" y="97.5" width="170" height="32.5" as="geometry" />
        </mxCell>
        <mxCell id="T_8p9TyNU_sb_ak6CZyA-197" style="edgeStyle=orthogonalEdgeStyle;curved=1;orthogonalLoop=1;jettySize=auto;html=1;entryX=0;entryY=0.5;entryDx=0;entryDy=0;" edge="1" parent="1" source="T_8p9TyNU_sb_ak6CZyA-78" target="T_8p9TyNU_sb_ak6CZyA-189">
          <mxGeometry relative="1" as="geometry" />
        </mxCell>
        <mxCell id="T_8p9TyNU_sb_ak6CZyA-198" style="edgeStyle=orthogonalEdgeStyle;curved=1;orthogonalLoop=1;jettySize=auto;html=1;entryX=0;entryY=0.5;entryDx=0;entryDy=0;" edge="1" parent="1" source="T_8p9TyNU_sb_ak6CZyA-88" target="T_8p9TyNU_sb_ak6CZyA-189">
          <mxGeometry relative="1" as="geometry" />
        </mxCell>
        <mxCell id="T_8p9TyNU_sb_ak6CZyA-199" style="edgeStyle=orthogonalEdgeStyle;curved=1;orthogonalLoop=1;jettySize=auto;html=1;entryX=0;entryY=0.5;entryDx=0;entryDy=0;" edge="1" parent="1" source="T_8p9TyNU_sb_ak6CZyA-141" target="T_8p9TyNU_sb_ak6CZyA-189">
          <mxGeometry relative="1" as="geometry" />
        </mxCell>
        <mxCell id="T_8p9TyNU_sb_ak6CZyA-201" value="" style="group" vertex="1" connectable="0" parent="1">
          <mxGeometry x="2090" y="1240" width="320" height="130" as="geometry" />
        </mxCell>
        <mxCell id="T_8p9TyNU_sb_ak6CZyA-202" value="&lt;b&gt;&lt;font color=&quot;#330000&quot;&gt;数据形式&lt;/font&gt;&lt;/b&gt;" style="rounded=1;whiteSpace=wrap;html=1;fillColor=#6d8764;strokeColor=#3A5431;fontColor=#ffffff;" vertex="1" parent="T_8p9TyNU_sb_ak6CZyA-201">
          <mxGeometry width="120" height="78" as="geometry" />
        </mxCell>
        <mxCell id="T_8p9TyNU_sb_ak6CZyA-203" value="定义" style="rounded=1;whiteSpace=wrap;html=1;" vertex="1" parent="T_8p9TyNU_sb_ak6CZyA-201">
          <mxGeometry y="78" width="120" height="26" as="geometry" />
        </mxCell>
        <mxCell id="T_8p9TyNU_sb_ak6CZyA-204" value="静态属性" style="rounded=1;whiteSpace=wrap;html=1;horizontal=0;" vertex="1" parent="T_8p9TyNU_sb_ak6CZyA-201">
          <mxGeometry x="120" width="30" height="78" as="geometry" />
        </mxCell>
        <mxCell id="T_8p9TyNU_sb_ak6CZyA-205" value="缺失值" style="rounded=1;whiteSpace=wrap;html=1;" vertex="1" parent="T_8p9TyNU_sb_ak6CZyA-201">
          <mxGeometry x="150" width="170" height="70" as="geometry" />
        </mxCell>
        <mxCell id="T_8p9TyNU_sb_ak6CZyA-206" value="动态属性" style="rounded=1;whiteSpace=wrap;html=1;horizontal=0;" vertex="1" parent="T_8p9TyNU_sb_ak6CZyA-201">
          <mxGeometry x="120" y="78" width="30" height="52" as="geometry" />
        </mxCell>
        <mxCell id="T_8p9TyNU_sb_ak6CZyA-207" value="类别数据" style="rounded=1;whiteSpace=wrap;html=1;" vertex="1" parent="T_8p9TyNU_sb_ak6CZyA-201">
          <mxGeometry x="150" y="65" width="170" height="65" as="geometry" />
        </mxCell>
        <mxCell id="T_8p9TyNU_sb_ak6CZyA-208" value="驱动因素" style="rounded=1;whiteSpace=wrap;html=1;" vertex="1" parent="T_8p9TyNU_sb_ak6CZyA-201">
          <mxGeometry y="104" width="120" height="26" as="geometry" />
        </mxCell>
        <mxCell id="T_8p9TyNU_sb_ak6CZyA-211" value="" style="group" vertex="1" connectable="0" parent="1">
          <mxGeometry x="2090" y="1450" width="320" height="160" as="geometry" />
        </mxCell>
        <mxCell id="T_8p9TyNU_sb_ak6CZyA-212" value="&lt;b&gt;&lt;font color=&quot;#330000&quot;&gt;基分类器&lt;/font&gt;&lt;/b&gt;" style="rounded=1;whiteSpace=wrap;html=1;fillColor=#6d8764;strokeColor=#3A5431;fontColor=#ffffff;" vertex="1" parent="T_8p9TyNU_sb_ak6CZyA-211">
          <mxGeometry width="120" height="96" as="geometry" />
        </mxCell>
        <mxCell id="T_8p9TyNU_sb_ak6CZyA-213" value="定义" style="rounded=1;whiteSpace=wrap;html=1;" vertex="1" parent="T_8p9TyNU_sb_ak6CZyA-211">
          <mxGeometry y="96" width="120" height="32" as="geometry" />
        </mxCell>
        <mxCell id="T_8p9TyNU_sb_ak6CZyA-214" value="静态属性" style="rounded=1;whiteSpace=wrap;html=1;horizontal=0;" vertex="1" parent="T_8p9TyNU_sb_ak6CZyA-211">
          <mxGeometry x="120" width="30" height="96" as="geometry" />
        </mxCell>
        <mxCell id="T_8p9TyNU_sb_ak6CZyA-215" value="节点分裂方式" style="rounded=1;whiteSpace=wrap;html=1;" vertex="1" parent="T_8p9TyNU_sb_ak6CZyA-211">
          <mxGeometry x="150" width="170" height="36.92307692307693" as="geometry" />
        </mxCell>
        <mxCell id="T_8p9TyNU_sb_ak6CZyA-216" value="动态属性" style="rounded=1;whiteSpace=wrap;html=1;horizontal=0;" vertex="1" parent="T_8p9TyNU_sb_ak6CZyA-211">
          <mxGeometry x="120" y="96" width="30" height="64" as="geometry" />
        </mxCell>
        <mxCell id="T_8p9TyNU_sb_ak6CZyA-217" value="Level-Wise" style="rounded=1;whiteSpace=wrap;html=1;" vertex="1" parent="T_8p9TyNU_sb_ak6CZyA-211">
          <mxGeometry x="150" y="120" width="170" height="40" as="geometry" />
        </mxCell>
        <mxCell id="T_8p9TyNU_sb_ak6CZyA-218" value="驱动因素" style="rounded=1;whiteSpace=wrap;html=1;" vertex="1" parent="T_8p9TyNU_sb_ak6CZyA-211">
          <mxGeometry y="128" width="120" height="32" as="geometry" />
        </mxCell>
        <mxCell id="T_8p9TyNU_sb_ak6CZyA-223" value="缺失值处理方式" style="rounded=1;whiteSpace=wrap;html=1;" vertex="1" parent="T_8p9TyNU_sb_ak6CZyA-211">
          <mxGeometry x="150" y="36.92307692307693" width="170" height="36.92307692307693" as="geometry" />
        </mxCell>
        <mxCell id="T_8p9TyNU_sb_ak6CZyA-224" value="缺失值处理方式" style="rounded=1;whiteSpace=wrap;html=1;" vertex="1" parent="T_8p9TyNU_sb_ak6CZyA-211">
          <mxGeometry x="150" y="73.85" width="170" height="46.15" as="geometry" />
        </mxCell>
        <mxCell id="T_8p9TyNU_sb_ak6CZyA-219" style="edgeStyle=orthogonalEdgeStyle;curved=1;orthogonalLoop=1;jettySize=auto;html=1;entryX=0;entryY=0.5;entryDx=0;entryDy=0;" edge="1" parent="1" source="T_8p9TyNU_sb_ak6CZyA-75" target="T_8p9TyNU_sb_ak6CZyA-202">
          <mxGeometry relative="1" as="geometry" />
        </mxCell>
        <mxCell id="T_8p9TyNU_sb_ak6CZyA-220" style="edgeStyle=orthogonalEdgeStyle;curved=1;orthogonalLoop=1;jettySize=auto;html=1;entryX=-0.003;entryY=0.577;entryDx=0;entryDy=0;entryPerimeter=0;" edge="1" parent="1" source="T_8p9TyNU_sb_ak6CZyA-85" target="T_8p9TyNU_sb_ak6CZyA-202">
          <mxGeometry relative="1" as="geometry" />
        </mxCell>
        <mxCell id="T_8p9TyNU_sb_ak6CZyA-221" style="edgeStyle=orthogonalEdgeStyle;curved=1;orthogonalLoop=1;jettySize=auto;html=1;entryX=0;entryY=0.5;entryDx=0;entryDy=0;" edge="1" parent="1" source="T_8p9TyNU_sb_ak6CZyA-138" target="T_8p9TyNU_sb_ak6CZyA-202">
          <mxGeometry relative="1" as="geometry" />
        </mxCell>
        <mxCell id="T_8p9TyNU_sb_ak6CZyA-222" style="edgeStyle=orthogonalEdgeStyle;curved=1;orthogonalLoop=1;jettySize=auto;html=1;" edge="1" parent="1" source="T_8p9TyNU_sb_ak6CZyA-87" target="T_8p9TyNU_sb_ak6CZyA-212">
          <mxGeometry relative="1" as="geometry" />
        </mxCell>
        <mxCell id="T_8p9TyNU_sb_ak6CZyA-225" value="" style="group" vertex="1" connectable="0" parent="1">
          <mxGeometry x="2520" y="1440" width="320" height="160" as="geometry" />
        </mxCell>
        <mxCell id="T_8p9TyNU_sb_ak6CZyA-226" value="&lt;b&gt;&lt;font color=&quot;#330000&quot;&gt;节点分裂&lt;/font&gt;&lt;/b&gt;" style="rounded=1;whiteSpace=wrap;html=1;fillColor=#6d8764;strokeColor=#3A5431;fontColor=#ffffff;" vertex="1" parent="T_8p9TyNU_sb_ak6CZyA-225">
          <mxGeometry width="120" height="96" as="geometry" />
        </mxCell>
        <mxCell id="T_8p9TyNU_sb_ak6CZyA-227" value="定义" style="rounded=1;whiteSpace=wrap;html=1;" vertex="1" parent="T_8p9TyNU_sb_ak6CZyA-225">
          <mxGeometry y="96" width="120" height="32" as="geometry" />
        </mxCell>
        <mxCell id="T_8p9TyNU_sb_ak6CZyA-228" value="静态属性" style="rounded=1;whiteSpace=wrap;html=1;horizontal=0;" vertex="1" parent="T_8p9TyNU_sb_ak6CZyA-225">
          <mxGeometry x="120" width="30" height="96" as="geometry" />
        </mxCell>
        <mxCell id="T_8p9TyNU_sb_ak6CZyA-229" value="精确分裂" style="rounded=1;whiteSpace=wrap;html=1;" vertex="1" parent="T_8p9TyNU_sb_ak6CZyA-225">
          <mxGeometry x="150" width="170" height="80" as="geometry" />
        </mxCell>
        <mxCell id="T_8p9TyNU_sb_ak6CZyA-230" value="动态属性" style="rounded=1;whiteSpace=wrap;html=1;horizontal=0;" vertex="1" parent="T_8p9TyNU_sb_ak6CZyA-225">
          <mxGeometry x="120" y="96" width="30" height="64" as="geometry" />
        </mxCell>
        <mxCell id="T_8p9TyNU_sb_ak6CZyA-232" value="驱动因素" style="rounded=1;whiteSpace=wrap;html=1;" vertex="1" parent="T_8p9TyNU_sb_ak6CZyA-225">
          <mxGeometry y="128" width="120" height="32" as="geometry" />
        </mxCell>
        <mxCell id="T_8p9TyNU_sb_ak6CZyA-233" value="近似算法" style="rounded=1;whiteSpace=wrap;html=1;" vertex="1" parent="T_8p9TyNU_sb_ak6CZyA-225">
          <mxGeometry x="150" y="80" width="170" height="80" as="geometry" />
        </mxCell>
      </root>
    </mxGraphModel>
  </diagram>
</mxfile>
